# xmcd CD database file
#
# Track frame offsets:
#	150
#	45235
#	90310
#	126026
#	155644
#	185850
#	209388
#	231832
#	263762
#	288431
#	310237
#	338401
#
# Disc length: 4900 seconds
#
# Revision: 0
# Processed by: cddbd v1.5.2PL0 Copyright (c) Steve Scherf et al.
# Submitted via: CDex 1.51
#
DISCID=a113220c
DTITLE=Andrey Klimkovsky - Extremal Forsage
DYEAR=1900
DGENRE=New Age
TTITLE0=RoboDream
TTITLE1=CyberRelax
TTITLE2=ElectriSEAti
TTITLE3=Avante-2005
TTITLE4=On the Edge of Life
TTITLE5=Robogiator
TTITLE6=Earth - Venus - Mars
TTITLE7=SynchroSignal
TTITLE8=SEAvilization of Sound
TTITLE9=Chain Reaction
TTITLE10=CyberRelax - II
TTITLE11=Recollection of Last Life
EXTD=
EXTT0=
EXTT1=
EXTT2=
EXTT3=
EXTT4=
EXTT5=
EXTT6=
EXTT7=
EXTT8=
EXTT9=
EXTT10=
EXTT11=
PLAYORDER=
